<svg xmlns="http://www.w3.org/2000/svg" viewBox="0 0 600 120" fill="none">
  <!-- EUSTONE Text in White -->
  <text x="300" y="80" font-family="system-ui, -apple-system, sans-serif" font-size="64" font-weight="900" fill="#FFFFFF" text-anchor="middle" letter-spacing="4">EUSTONE</text>
  
  <!-- Yellow Stars on E (5 stars) -->
  <g fill="#FFD700">
    <path d="M 60 25 L 62 35 L 72 35 L 64 40 L 66 50 L 60 45 L 54 50 L 56 40 L 48 35 L 58 35 Z"/>
    <path d="M 60 55 L 62 65 L 72 65 L 64 70 L 66 80 L 60 75 L 54 80 L 56 70 L 48 65 L 58 65 Z"/>
    <path d="M 60 85 L 62 95 L 72 95 L 64 100 L 66 110 L 60 105 L 54 110 L 56 100 L 48 95 L 58 95 Z"/>
    <path d="M 80 30 L 82 40 L 92 40 L 84 45 L 86 55 L 80 50 L 74 55 L 76 45 L 68 40 L 78 40 Z"/>
    <path d="M 70 60 L 72 70 L 82 70 L 74 75 L 76 85 L 70 80 L 64 85 L 66 75 L 58 70 L 68 70 Z"/>
  </g>
  
  <!-- Yellow Stars on U (3 stars) -->
  <g fill="#FFD700">
    <path d="M 150 50 L 152 60 L 162 60 L 154 65 L 156 75 L 150 70 L 144 75 L 146 65 L 138 60 L 148 60 Z"/>
    <path d="M 150 80 L 152 90 L 162 90 L 154 95 L 156 105 L 150 100 L 144 105 L 146 95 L 138 90 L 148 90 Z"/>
    <path d="M 190 85 L 192 95 L 202 95 L 194 100 L 196 110 L 190 105 L 184 110 L 186 100 L 178 95 L 188 95 Z"/>
  </g>
  
  <!-- Yellow Stars on S (2 stars) -->
  <g fill="#FFD700">
    <path d="M 240 45 L 242 55 L 252 55 L 244 60 L 246 70 L 240 65 L 234 70 L 236 60 L 228 55 L 238 55 Z"/>
    <path d="M 240 85 L 242 95 L 252 95 L 244 100 L 246 110 L 240 105 L 234 110 L 236 100 L 228 95 L 238 95 Z"/>
  </g>
</svg>
